<svg width="1103" height="1103" viewBox="0 0 1103 1103" fill="none" xmlns="http://www.w3.org/2000/svg">
<path d="M1089.37 551.295C1089.37 848.148 848.728 1088.79 551.875 1088.79C255.021 1088.79 14.3745 848.148 14.3745 551.295C14.3745 254.442 255.021 13.7949 551.875 13.7949C848.728 13.7949 1089.37 254.442 1089.37 551.295Z" fill="#5F2F0A" stroke="#472308" stroke-width="27"/>
<path d="M766.5 551.5C766.5 670.269 670.437 766.5 552 766.5C433.563 766.5 337.5 670.269 337.5 551.5C337.5 432.731 433.563 336.5 552 336.5C670.437 336.5 766.5 432.731 766.5 551.5Z" fill="#5F2F0A" stroke="#472308" stroke-width="27"/>
<path d="M668.5 551.5C668.5 616.166 616.292 668.5 552 668.5C487.708 668.5 435.5 616.166 435.5 551.5C435.5 486.834 487.708 434.5 552 434.5C616.292 434.5 668.5 486.834 668.5 551.5Z" fill="#DDB474" stroke="#472308" stroke-width="27"/>
<path d="M1093.87 551.295C1093.87 850.633 851.213 1093.29 551.875 1093.29C252.536 1093.29 9.87451 850.633 9.87451 551.295C9.87451 251.957 252.536 9.29486 551.875 9.29486C851.213 9.29486 1093.87 251.957 1093.87 551.295Z" stroke="#DDB474" stroke-width="18"/>
</svg>
